PathFileType	4	(X/Y/Z)	Patient4_TMGait_0pt7_01_left_46.trc.trc
DataRate	CameraRate	NumFrames	NumMarkers	Units	OrigDataRate	OrigDataStartFrame	OrigNumFrames
83.832335329341	83.832335329341	6	33	mm	83.832335329341	89	       141
Frame#	Time	Sacral			L.Shoulder			Chest			R.Shoulder			Neck			R.ASIS			L.ASIS			R.Thigh.Superior			R.Thigh.Lateral			R.Thigh.Inferior			R.Patella			L.Thigh.Superior			L.Thigh.Lateral			L.Thigh.Inferior			L.Patella			L.Shank.Superior			L.Shank.Lateral			L.Shank.Inferior			R.Shank.Superior			R.Shank.Lateral			R.Shank.Inferior			R.Heel			R.Midfoot.Superior			R.Midfoot.Lateral			R.Toe			L.Heel			L.Midfoot.Lateral			L.Midfoot.Superior			L.Toe			L.Elbow			L.Wrist			R.Elbow			R.Wrist			
		X1	Y1	Z1	X2	Y2	Z2	X3	Y3	Z3	X4	Y4	Z4	X5	Y5	Z5	X6	Y6	Z6	X7	Y7	Z7	X8	Y8	Z8	X9	Y9	Z9	X10	Y10	Z10	X11	Y11	Z11	X12	Y12	Z12	X13	Y13	Z13	X14	Y14	Z14	X15	Y15	Z15	X16	Y16	Z16	X17	Y17	Z17	X18	Y18	Z18	X19	Y19	Z19	X20	Y20	Z20	X21	Y21	Z21	X22	Y22	Z22	X23	Y23	Z23	X24	Y24	Z24	X25	Y25	Z25	X26	Y26	Z26	X27	Y27	Z27	X28	Y28	Z28	X29	Y29	Z29	X30	Y30	Z30	X31	Y31	Z31	X32	Y32	Z32	X33	Y33	Z33	

89	54.399714285714	867.884632043908	1008.934270989508	507.155993912693	1068.667703540170	1421.882641531020	307.438036756934	1165.556163953872	1350.565848713429	472.291089810520	1085.721573512917	1440.383769120419	640.022651407432	1075.374623108442	1487.789927883103	458.509572342017	1095.501773758597	934.302962388122	620.059732467112	1077.547882621904	959.031454896812	344.592829314164	1157.470220165450	748.599804758267	590.846493289692	1088.940610522294	632.851124485582	650.407455864281	1172.772603572686	589.986704175053	570.204829817667	1186.560117850153	500.932178841902	576.924313955207	1099.449178227256	736.499623603143	361.338642953988	998.196083179534	632.792817731245	296.151387422056	1076.617329123118	538.088859563651	348.867973655887	1061.081950290808	454.703677479271	344.827914985320	989.877426755479	402.413070728243	338.137337175205	847.943859594029	366.161607489799	287.759308342714	828.954655108822	237.257177877013	342.219015533739	1163.203338235112	410.763040933078	584.850738425801	1100.033749980283	303.152165542429	648.114684886106	1146.825409643455	210.499407155318	585.513486955647	1021.327673218312	43.566270423013	560.541593710709	1193.999689871371	98.999536088553	591.041110988700	1106.970175247842	37.525369804110	631.786017688309	1314.840153400804	44.255254138548	614.315389470171	635.793291826444	182.715715482997	376.369668351740	691.380983844876	125.003992049077	303.900551582969	795.354638537389	129.635152887519	326.617378228950	867.209670222544	29.177226620854	315.841341025237	1045.559625551033	1071.893913205892	198.236219199872	1294.008806368390	1013.524922333248	216.337256655008	958.423277236709	1127.741897175305	778.125507320035	971.030090256850	865.002432884037	776.531285922419	
90	54.411642857143	867.671263079852	1010.522155883840	510.562836982846	1068.172369472764	1423.005279647095	309.750780969725	1166.339134682329	1351.216084174438	473.739002810330	1088.263962728172	1441.213437440800	642.116066917425	1076.363596990369	1488.778698722074	460.831958925433	1095.539769355422	935.445021877356	622.624974177036	1076.989516366413	959.871929897722	347.347124475793	1154.867145830689	747.594724980900	594.375855084405	1084.107030989259	633.163963889209	653.010769866812	1167.185206557329	589.294184795793	572.614446213396	1179.432890875140	500.429373187751	578.825815491148	1104.557815039419	739.445887938343	364.934210871596	1008.541061530907	632.884167865308	298.504079384995	1089.468849399942	540.170432785672	352.220365517624	1075.213360116057	455.511548305117	347.630396162724	1002.285646521358	403.322892828518	340.434844528635	859.428683783177	371.879100846336	289.279324281010	835.933727632208	243.591517782732	343.290275059232	1156.010765043222	410.580700773077	586.575296615659	1092.499121009708	302.944152485777	649.376052853829	1139.044207705353	210.398703583335	586.362924834191	1013.038204599914	43.664273972030	560.696951779127	1185.815802116638	98.902600425459	591.383126708069	1098.650312732772	37.483986491139	631.919142930897	1306.591769483741	43.716821709715	614.533918892337	641.369952868404	198.860372851147	376.525136890765	693.820033973054	138.049979957482	303.989978606534	798.050732294851	136.265734151392	327.063154823901	863.044161177363	28.501701764437	315.733657818944	1040.081351276847	1072.561557340705	202.236336934948	1285.827123125568	1001.527227673780	219.954572178357	968.026488180571	1125.677347166473	782.096121364349	993.136296467497	863.882449805882	777.814598347108	
91	54.423571428571	867.252578342511	1011.949599575039	513.834205701546	1067.401003277440	1423.959672283886	311.887088048373	1166.902306518648	1351.676887378926	474.960582319098	1090.670618547261	1441.823640294928	644.051364238977	1077.193878131458	1489.610018896885	462.995492284343	1095.357094456966	936.478662368798	625.054627318999	1076.161882725701	960.561786001612	349.995595745330	1152.044319927005	746.688765123907	597.584333862826	1079.289051090890	633.542397786563	655.568408854186	1161.503527089385	588.645012666217	574.924576920549	1172.196197177735	499.990341686379	580.746744537360	1109.413158450516	742.680109292437	368.641876892129	1018.839010451713	633.449550920706	300.779665077894	1102.106703486698	542.868765764734	355.628649014944	1089.353524521018	456.989537054534	350.509739671556	1014.996850239303	404.727569351695	342.752245448445	871.436457554987	377.604337265084	290.852476416516	843.911586607176	249.961137859390	344.491792642963	1148.757836121561	410.436681328618	588.304659279168	1084.907680444600	302.776303473685	650.668932563352	1131.238648872411	210.331251112341	587.238230915633	1004.717606322257	43.784505357268	560.875743347018	1177.628065184496	98.756216869538	591.741250274585	1090.303538518940	37.439679571636	632.067564281322	1298.315677590245	43.181482504172	614.747915046530	648.382755786678	213.924087019908	376.864730559184	698.028504566517	150.621048744765	304.178669851862	802.275910551881	143.157768268275	327.642326605815	860.967984739298	28.521061878508	315.595022125143	1034.609760059011	1073.059234780433	206.208235496786	1276.689956777221	988.476316073755	223.403620648773	977.989023884723	1123.498409137208	785.965374229374	1016.183247315637	863.381009984410	778.816661822902	
92	54.435500000000	866.656486055239	1013.239030518990	516.977522330432	1066.401843035032	1424.770235007176	313.845214321452	1167.250577193165	1351.986792510199	475.977607197739	1092.903391293299	1442.256812139495	645.823794592656	1077.873762259343	1490.310018677464	464.990641868789	1094.970096149033	937.432103824006	627.356060668718	1075.047128026341	961.120952140840	352.544307295968	1149.058153628693	745.910076915516	600.470757440885	1074.511872482353	633.976910485853	658.051349309009	1155.779891251130	588.040532509034	577.127000390705	1164.914064467678	499.617421946979	582.649652604441	1113.925556256583	746.222719408223	372.411116787235	1028.870720093349	634.559112073842	302.954509955550	1114.343997545980	546.220846448000	358.954165347018	1103.323746177781	459.192062221335	353.299166182639	1027.857342826040	406.664635420797	344.979789940957	883.770363669924	383.213720238924	292.448924741313	852.873923832415	256.156746998309	345.765604561769	1141.487982544646	410.331395828097	590.007140989836	1077.295455967739	302.662858892450	651.975255087722	1123.423816361866	210.300005482596	588.120648606482	996.371458081099	43.924950726884	561.078744486385	1169.430890468117	98.594450856640	592.108690296347	1081.935232343102	37.400101691225	632.233242335824	1290.012405472148	42.685542733346	614.962619677023	656.723198194170	227.258660400751	377.395966995101	704.071078835392	162.142933978505	304.475879861670	808.182328149075	150.015228610675	328.314551246661	861.510322260516	29.360095412709	315.427728574987	1029.173758816721	1073.401629938687	210.182729260430	1266.452594614386	974.471941150760	226.661742113873	988.346741202947	1121.240358556129	789.674755614130	1040.093819124122	863.632138277559	779.443774261106	
93	54.447428571429	865.912573303560	1014.421189288665	520.003857299401	1065.225460812005	1425.461669365560	315.632701280771	1167.396603802037	1352.187996299251	476.821261258848	1094.933725788617	1442.563102944977	647.435581076822	1078.411242576848	1490.906632802500	466.814683459339	1094.399580258304	938.325688905833	629.533020474420	1073.634224396433	961.570049661602	354.997230411675	1145.954950559303	745.259023340741	603.063332177896	1069.769518787843	634.447449301364	660.427964655998	1150.044378289185	587.474637809052	579.216296159553	1157.630897019699	499.306555905839	584.492165026600	1118.031172559450	750.077423984881	376.170701990310	1038.442381563282	636.243672188280	305.005168470447	1126.034276487663	550.229808464006	362.060471208627	1116.972425453548	462.145727712948	355.853279504513	1040.739450513944	409.140493528507	347.022088594925	896.265146979972	388.557687771558	294.029498915968	862.816415970629	261.948627846729	347.052048315324	1134.226706634541	410.261437594380	591.646824060853	1069.683920162352	302.610923986718	653.269310701954	1115.606961480223	210.304632072565	588.988683719232	988.005320951456	44.082161861249	561.303216204808	1161.218664085844	98.442489162391	592.476869585365	1073.550927153988	37.370631949061	632.414325211551	1281.683943122452	42.254274403280	615.178887873702	666.289224479528	238.289650838189	378.108760923265	711.982236084007	172.080430777264	304.877443025474	815.897323493897	156.513101353986	329.033135462363	865.132384862102	31.024386021787	315.224418067988	1023.794843881841	1073.612875536285	214.182806988594	1254.970945012371	959.667236990781	229.712943731759	999.121417079964	1118.959353568512	793.167530046664	1064.771609183533	864.780430615920	779.605383797975	
94	54.459357142857	865.048992065113	1015.528756477838	522.924023125704	1063.920351432586	1426.055029349065	317.265322751938	1167.359659328194	1352.319383155242	477.528235387043	1096.747090502058	1442.792905000506	648.895727708802	1078.813639204384	1491.425760183792	468.472006343461	1093.668965402320	939.169392948612	631.585106764925	1071.922258329937	961.931245635580	357.353670873265	1142.767529092441	744.715168404265	605.402934107449	1065.040727767120	634.929612233179	662.667114517724	1144.311527646108	586.937641832905	581.186371624589	1150.377381674373	499.048950889682	586.233705536061	1121.689376257177	754.229592900176	379.835317356043	1047.396977235040	638.492537394810	306.909655082844	1137.070455271008	554.864717311208	364.830971264566	1130.175491425441	465.847037119054	358.065360945202	1053.541304720586	412.130101233849	348.810067245320	908.794592956436	393.469300420778	295.550009439833	873.742026348898	267.104720475383	348.295029129797	1126.987930124149	410.219862095003	593.188443467629	1062.085002397468	302.620415642609	654.521113261676	1107.790863499650	210.341462977114	589.820491329051	979.624079527410	44.251808016084	561.543892344141	1152.986535666849	98.315485803735	592.836519753712	1065.155649037029	37.354481332202	632.606251711697	1273.333163234145	41.900802996368	615.394121579785	677.007060581562	246.566786540621	378.974539566015	721.769856913962	179.985776653436	305.362977626911	825.512178158617	162.323860695522	329.746371988126	872.164162296515	33.382569126914	314.963500570719	1018.486937907163	1073.722310885435	218.219346552337	1242.115451890020	944.272976048992	232.548414092805	1010.315652501432	1116.726017732988	796.390650862027	1090.096977789510	866.973658881782	779.219673814313	
